<svg width="288" height="118" viewBox="0 0 288 118" fill="none" xmlns="http://www.w3.org/2000/svg">
<g clip-path="url(#clip0_4_85)">
<rect x="57.785" y="20.3403" width="27.7368" height="27.7368" rx="4.62279" fill="white"/>
<rect x="85.5217" y="48.077" width="27.7368" height="27.7368" rx="4.62279" fill="white"/>
<rect x="57.785" y="75.8138" width="27.7368" height="27.7368" rx="4.62279" fill="white"/>
<rect x="30.0482" y="48.077" width="27.7368" height="27.7368" rx="4.62279" fill="white"/>
<path d="M135.392 70.4406V40.263H138.943V70.4406H135.392ZM137.434 43.6802V40.263H155.984V43.6802H137.434ZM137.434 57.1713V53.7542H154.209V57.1713H137.434ZM179.219 59.3459C179.219 62.9554 178.287 65.7808 176.423 67.8223C174.589 69.8637 172.044 70.8844 168.79 70.8844C165.565 70.8844 163.021 69.8637 161.157 67.8223C159.322 65.7808 158.405 62.9554 158.405 59.3459C158.405 55.766 159.322 52.9554 161.157 50.9139C163.021 48.8429 165.565 47.8074 168.79 47.8074C172.044 47.8074 174.589 48.8429 176.423 50.9139C178.287 52.9554 179.219 55.766 179.219 59.3459ZM175.713 59.3459C175.713 56.5648 175.136 54.479 173.982 53.0885C172.858 51.6684 171.127 50.9583 168.79 50.9583C166.512 50.9583 164.796 51.6684 163.642 53.0885C162.488 54.479 161.911 56.5648 161.911 59.3459C161.911 62.127 162.488 64.2276 163.642 65.6477C164.796 67.0382 166.512 67.7335 168.79 67.7335C171.127 67.7335 172.858 67.0382 173.982 65.6477C175.136 64.2276 175.713 62.127 175.713 59.3459ZM202.885 70.4406H181.983V66.9791H202.885V70.4406ZM188.551 68.843V48.2512C189.142 48.2512 189.66 48.2512 190.104 48.2512C190.488 48.2512 190.829 48.2512 191.125 48.2512C191.45 48.2512 191.613 48.2512 191.613 48.2512L192.101 54.7305V68.843H188.551ZM190.503 51.6684H181.983V48.2512H190.503V51.6684ZM198.802 48.2512H202.885V51.8015H198.58C197.071 51.8015 195.888 51.9051 195.03 52.1122C194.172 52.2897 193.521 52.6891 193.077 53.3104C192.663 53.9021 192.397 54.7601 192.278 55.8844C192.16 56.979 192.101 58.4287 192.101 60.2335L191.568 57.3932C191.568 55.7956 191.672 54.4347 191.879 53.3104C192.116 52.1565 192.515 51.2098 193.077 50.4701C193.639 49.7009 194.379 49.1388 195.296 48.7838C196.213 48.4287 197.382 48.2512 198.802 48.2512ZM222.821 63.9613L222.999 59.479L222.821 54.7749V48.2512H226.371V72.0383C226.371 74.4051 225.868 76.1359 224.863 77.2306C223.857 78.3252 222.274 78.8726 220.114 78.8726H207.777V75.3223H221.179C221.534 75.3223 221.815 75.3075 222.022 75.2779C222.259 75.2483 222.436 75.1596 222.555 75.0116C222.673 74.8933 222.747 74.7158 222.777 74.4791C222.806 74.272 222.821 73.9761 222.821 73.5915V63.9613ZM205.558 59.3459C205.558 57.5708 205.794 55.9731 206.268 54.553C206.741 53.1329 207.392 51.9199 208.22 50.9139C209.049 49.908 210.04 49.1388 211.194 48.6062C212.348 48.0737 213.605 47.8074 214.966 47.8074C216.741 47.8074 218.191 48.1181 219.315 48.7394C220.469 49.3607 221.371 50.2039 222.022 51.269C222.703 52.3341 223.176 53.5619 223.442 54.9524C223.709 56.3429 223.842 57.8074 223.842 59.3459C223.842 60.8844 223.709 62.3489 223.442 63.7394C223.206 65.1299 222.747 66.3578 222.067 67.4229C221.386 68.4879 220.469 69.3311 219.315 69.9524C218.191 70.5737 216.741 70.8844 214.966 70.8844C213.605 70.8844 212.348 70.6181 211.194 70.0856C210.04 69.553 209.049 68.7986 208.22 67.8223C207.392 66.8163 206.741 65.6033 206.268 64.1832C205.794 62.7631 205.558 61.1506 205.558 59.3459ZM209.064 59.3459C209.064 62.127 209.641 64.2276 210.794 65.6477C211.948 67.0382 213.679 67.7335 215.987 67.7335C218.294 67.7335 220.01 67.0382 221.135 65.6477C222.289 64.2276 222.865 62.127 222.865 59.3459C222.865 56.5648 222.289 54.479 221.135 53.0885C219.981 51.6684 218.265 50.9583 215.987 50.9583C213.679 50.9583 211.948 51.6684 210.794 53.0885C209.641 54.479 209.064 56.5648 209.064 59.3459ZM231.088 60.2779V57.2601H247.73L249.904 59.3459V60.2779H231.088ZM245.999 62.8518H249.549C248.987 65.3666 247.833 67.3341 246.088 68.7542C244.372 70.1743 242.168 70.8844 239.475 70.8844C236.25 70.8844 233.706 69.8637 231.842 67.8223C230.008 65.7808 229.091 62.9554 229.091 59.3459C229.091 55.766 230.008 52.9554 231.842 50.9139C233.706 48.8429 236.25 47.8074 239.475 47.8074C242.73 47.8074 245.274 48.8429 247.108 50.9139C248.972 52.9554 249.904 55.766 249.904 59.3459H246.398C246.398 56.5648 245.821 54.479 244.668 53.0885C243.543 51.6684 241.813 50.9583 239.475 50.9583C237.197 50.9583 235.481 51.6684 234.327 53.0885C233.173 54.479 232.597 56.5648 232.597 59.3459C232.597 62.127 233.173 64.2276 234.327 65.6477C235.481 67.0382 237.197 67.7335 239.475 67.7335C241.25 67.7335 242.685 67.3341 243.78 66.5353C244.875 65.7069 245.614 64.4791 245.999 62.8518Z" fill="white"/>
</g>
<defs>
<clipPath id="clip0_4_85">
<rect width="288" height="117.881" fill="white"/>
</clipPath>
</defs>
</svg>
