<svg width="411" height="435" viewBox="0 0 411 435" fill="none" xmlns="http://www.w3.org/2000/svg">
<rect width="79.0377" height="39.5189" transform="matrix(0.866025 0.5 0 1 0 355.67)" fill="#93FCB1"/>
<rect width="79.0377" height="79.0377" transform="matrix(0.866025 0.5 -0.866025 0.5 68.4487 316.151)" fill="#BDFDCF"/>
<rect width="79.0377" height="39.5189" transform="matrix(0.866025 0.5 0 1 68.4487 276.632)" fill="#93FCB1"/>
<rect width="79.0377" height="79.0377" transform="matrix(0.866025 0.5 -0.866025 0.5 136.897 237.113)" fill="#BDFDCF"/>
<rect width="79.0377" height="39.5189" transform="matrix(0.866025 0.5 0 1 136.897 197.595)" fill="#93FCB1"/>
<rect width="79.0377" height="79.0377" transform="matrix(0.866025 0.5 -0.866025 0.5 205.346 158.076)" fill="#BDFDCF"/>
<rect width="79.0377" height="39.5189" transform="matrix(0.866025 0.5 0 1 205.346 118.557)" fill="#93FCB1"/>
<rect width="79.0377" height="79.0377" transform="matrix(0.866025 0.5 -0.866025 0.5 273.795 79.0378)" fill="#BDFDCF"/>
<rect width="79.0377" height="39.5189" transform="matrix(0.866025 0.5 0 1 273.795 39.5188)" fill="#93FCB1"/>
<rect width="79.0377" height="79.0377" transform="matrix(0.866025 0.5 -0.866025 0.5 342.243 0)" fill="#BDFDCF"/>
<path d="M68.4487 434.707V395.188L136.897 355.669V316.151L205.346 276.632V237.113L273.795 197.594V158.075L342.243 118.556V79.0373L410.692 39.5184V237.113L68.4487 434.707Z" fill="#65E188"/>
</svg>
